HIERARCHY
ROOT Hips
{
 OFFSET 0.000000 0.000000 0.000000
 CHANNELS 6 Xposition Yposition Zposition Yrotation Xrotation Zrotation
 JOINT Chest
 {
  OFFSET 0.000000 12.953391 -0.028419
  CHANNELS 3 Yrotation Xrotation Zrotation
  JOINT Chest2
  {
   OFFSET 0.000000 10.280254 0.051622
   CHANNELS 3 Yrotation Xrotation Zrotation
   JOINT Chest3
   {
    OFFSET 0.000000 9.287180 0.000000
    CHANNELS 3 Yrotation Xrotation Zrotation
    JOINT Chest4
    {
     OFFSET 0.000000 9.287180 0.000000
     CHANNELS 3 Yrotation Xrotation Zrotation
     JOINT Neck
     {
      OFFSET 0.000000 13.296264 0.000000
      CHANNELS 3 Yrotation Xrotation Zrotation
      JOINT Head
      {
       OFFSET 0.000000 8.959264 0.099003
       CHANNELS 3 Yrotation Xrotation Zrotation
       End Site
       {
        OFFSET 0.000000 17.121337 0.039303
       }
      }
     }
     JOINT RightCollar
     {
      OFFSET -3.193511 7.451388 0.000000
      CHANNELS 3 Yrotation Xrotation Zrotation
      JOINT RightShoulder
      {
       OFFSET -15.792092 0.000000 0.000000
       CHANNELS 3 Yrotation Xrotation Zrotation
       JOINT RightElbow
       {
        OFFSET -31.151839 0.000000 0.000000
        CHANNELS 3 Yrotation Xrotation Zrotation
        JOINT RightWrist
        {
         OFFSET -25.536298 0.000000 0.002321
         CHANNELS 3 Yrotation Xrotation Zrotation
         End Site
         {
          OFFSET -19.133213 0.000000 0.000000
         }
        }
       }
      }
     }
     JOINT LeftCollar
     {
      OFFSET 3.193511 7.451388 0.000000
      CHANNELS 3 Yrotation Xrotation Zrotation
      JOINT LeftShoulder
      {
       OFFSET 15.792092 0.000000 0.000000
       CHANNELS 3 Yrotation Xrotation Zrotation
       JOINT LeftElbow
       {
        OFFSET 31.151839 0.000000 0.000000
        CHANNELS 3 Yrotation Xrotation Zrotation
        JOINT LeftWrist
        {
         OFFSET 25.536298 0.000000 0.002321
         CHANNELS 3 Yrotation Xrotation Zrotation
         End Site
         {
          OFFSET 19.133213 0.000000 0.000000
         }
        }
       }
      }
     }
    }
   }
  }
 }
 JOINT RightHip
 {
  OFFSET -10.745749 0.139252 0.014209
  CHANNELS 3 Yrotation Xrotation Zrotation
  JOINT RightKnee
  {
   OFFSET 0.000000 -43.743899 -0.006071
   CHANNELS 3 Yrotation Xrotation Zrotation
   JOINT RightAnkle
   {
    OFFSET 0.000000 -43.214199 0.089931
    CHANNELS 3 Yrotation Xrotation Zrotation
    JOINT RightToe
    {
     OFFSET 0.000000 -9.699830 19.151588
     CHANNELS 3 Yrotation Xrotation Zrotation
     End Site
     {
      OFFSET 0.000000 -1.292898 4.893873
     }
    }
   }
  }
 }
 JOINT LeftHip
 {
  OFFSET 10.745749 0.139252 0.014209
  CHANNELS 3 Yrotation Xrotation Zrotation
  JOINT LeftKnee
  {
   OFFSET 0.000000 -43.743899 -0.006071
   CHANNELS 3 Yrotation Xrotation Zrotation
   JOINT LeftAnkle
   {
    OFFSET 0.000000 -43.214199 0.089931
    CHANNELS 3 Yrotation Xrotation Zrotation
    JOINT LeftToe
    {
     OFFSET 0.000000 -9.699830 19.151588
     CHANNELS 3 Yrotation Xrotation Zrotation
     End Site
     {
      OFFSET 0.000000 -1.292898 4.893873
     }
    }
   }
  }
 }
}
MOTION
Frames: 5
Frame Time: 0.016667
-12.723139 96.603940 -37.172810 31.537459 19.416455 5.338693 3.464936 15.098371 7.339236 1.285097 6.763680 3.118704 1.285097 6.763680 3.118704 0.928070 5.079490 2.322035 -5.410659 14.128537 6.900580 -12.813775 -8.847631 15.046774 12.372692 4.065645 8.013111 41.663462 -41.271539 24.156632 11.494991 26.688870 -14.845984 8.559598 31.718441 -73.092336 -15.717686 9.305533 11.826456 -7.006136 -40.309032 -80.316107 -9.892036 33.725930 -2.066378 11.424851 4.175252 13.593217 -16.718909 -37.781369 1.289873 7.893823 26.534640 4.134379 13.723420 -10.117864 -4.182108 0.000000 -0.000000 0.000000 12.488668 -37.495419 -15.718416 -3.943014 9.236176 -0.272518 -18.765139 2.821326 -7.445992 0.000000 0.000000 0.000000
-13.248099 96.586036 -37.301194 32.942309 19.069352 5.727277 3.321153 14.942969 7.379557 1.223431 6.692472 3.142810 1.223523 6.692350 3.142721 0.882124 5.025650 2.340849 -5.560617 14.058453 7.099766 -13.179253 -8.913208 15.486001 12.604666 4.311678 7.588841 40.764837 -41.427366 24.169202 11.217321 26.024686 -14.763214 8.324222 31.315401 -73.084056 -15.470293 9.339578 11.059980 -5.808338 -39.329552 -80.885507 -10.077172 32.412835 -2.386948 11.614970 2.846763 15.328012 -18.065208 -37.605019 1.675266 7.698298 26.536868 3.570781 13.784202 -9.854058 -3.899455 0.000000 -0.000000 0.000000 12.602913 -36.823347 -15.847275 -4.303576 8.116988 -0.706157 -17.658245 2.086815 -7.218451 0.000000 0.000000 0.000000
-13.773060 96.568133 -37.429577 34.341695 18.713376 6.105945 3.175859 14.787020 7.415856 1.161010 6.621220 3.165269 1.161070 6.621140 3.165211 0.835465 4.971989 2.358599 -5.713058 13.987999 7.296886 -13.548556 -8.978082 15.922815 12.838806 4.562852 7.169754 39.851388 -41.572406 24.201787 10.940941 25.361816 -14.673102 8.091321 30.912389 -73.071095 -15.217248 9.385055 10.296859 -4.630688 -38.355188 -81.391515 -10.249221 31.104172 -2.727512 11.620250 1.493175 17.042250 -19.407814 -37.428653 2.054161 7.503712 26.537846 3.007284 13.846678 -9.590914 -3.616572 0.000000 -0.000000 0.000000 12.704214 -36.148954 -15.953487 -4.646606 7.001940 -1.156868 -16.553521 1.350732 -7.001437 0.000000 0.000000 0.000000
-14.289267 96.581690 -37.557566 35.750484 18.359451 6.450408 3.062903 14.640518 7.469580 1.112053 6.554843 3.194221 1.112053 6.554843 3.194221 0.798760 4.922113 2.381081 -5.887593 13.913801 7.485773 -13.956986 -9.045413 16.353257 13.124085 4.767997 6.798595 38.792448 -41.694267 24.245929 10.628788 24.639010 -14.634210 8.110213 30.527729 -72.934172 -15.027880 9.368833 9.570137 -3.571556 -37.312837 -81.764810 -10.756377 29.942550 -3.240064 11.424908 0.310963 18.117921 -20.640113 -37.210512 2.418565 7.479470 26.464364 2.540063 13.629328 -9.329459 -3.365441 0.000000 0.000000 0.000000 12.793619 -35.425917 -16.032376 -4.517464 5.880976 -1.535733 -15.087949 0.467733 -6.798572 0.000000 0.000000 0.000000
-14.790559 96.640429 -37.688050 37.148006 18.019112 6.741105 3.008451 14.511377 7.554629 1.087645 6.497221 3.234846 1.087614 6.497267 3.234881 0.780319 4.878905 2.411979 -6.089106 13.836237 7.669706 -14.415018 -9.112286 16.785152 13.468900 4.903813 6.479693 37.545585 -41.754850 24.291266 10.270362 23.916284 -14.662713 8.393921 30.090993 -72.736386 -14.938452 9.249038 8.881572 -2.692233 -36.177768 -81.936346 -11.752183 28.932455 -4.023761 11.145836 -0.697473 18.237460 -21.736836 -36.934400 2.805412 7.771968 26.289394 2.221984 12.976939 -9.073452 -3.158789 0.000000 0.000000 -0.000000 12.775479 -34.618780 -16.026579 -3.609620 4.654674 -1.810586 -13.066869 -0.725072 -6.614935 -0.000000 -0.000000 0.000000
